<svg width="107" height="108" viewBox="0 0 107 108" fill="none" xmlns="http://www.w3.org/2000/svg">
<path fill-rule="evenodd" clip-rule="evenodd" d="M42.0268 20.8211C25.2412 31.6014 15.9159 44.1493 14.0508 58.4651C11.1462 80.75 31.0749 91.6574 41.1731 81.8579C51.2712 72.0585 45.219 59.6175 37.9073 56.2158C30.5957 52.8141 26.124 54 26.9042 49.4548C27.6844 44.9095 38.0857 32.3125 47.2253 26.4453C47.5487 26.1696 47.755 25.7811 47.8022 25.3587C47.8494 24.9363 47.734 24.5119 47.4794 24.1716L45.219 21.2313C44.2382 19.9562 43.2975 20.0052 42.0268 20.8189M86.2223 20.8211C69.4367 31.6014 60.1113 44.1493 58.2463 58.4651C55.3394 80.75 75.2682 91.6574 85.3663 81.8579C95.4644 72.0585 89.4122 59.6175 82.0983 56.2158C74.7844 52.8141 70.315 54 71.0952 49.4548C71.8754 44.9095 82.2789 32.3125 91.4185 26.4453C91.7416 26.1693 91.9474 25.7806 91.9942 25.3583C92.041 24.9359 91.9252 24.5116 91.6704 24.1716L89.4122 21.2313C88.4314 19.9562 87.4907 20.0052 86.2223 20.8189" fill="#906EB2"/>
</svg>
