<svg width="998" height="998" viewBox="0 0 998 998" fill="none" xmlns="http://www.w3.org/2000/svg">
<rect width="998" height="998" fill="white"/>
<path fill-rule="evenodd" clip-rule="evenodd" d="M650.333 384.625C650.333 424.894 634.337 463.513 605.862 491.987C577.388 520.462 538.769 536.458 498.5 536.458C458.231 536.458 419.612 520.462 391.138 491.987C362.663 463.513 346.667 424.894 346.667 384.625C346.667 344.356 362.663 305.737 391.138 277.262C419.612 248.788 458.231 232.792 498.5 232.792C538.769 232.792 577.388 248.788 605.862 277.262C634.337 305.737 650.333 344.356 650.333 384.625ZM574.417 384.625C574.417 404.759 566.418 424.069 552.181 438.306C537.944 452.543 518.634 460.542 498.5 460.542C478.366 460.542 459.056 452.543 444.819 438.306C430.582 424.069 422.583 404.759 422.583 384.625C422.583 364.49 430.582 345.181 444.819 330.944C459.056 316.707 478.366 308.708 498.5 308.708C518.634 308.708 537.944 316.707 552.181 330.944C566.418 345.181 574.417 364.49 574.417 384.625Z" fill="#906EB2"/>
<path fill-rule="evenodd" clip-rule="evenodd" d="M498.5 80.9585C267.903 80.9585 80.9583 267.903 80.9583 498.5C80.9583 729.097 267.903 916.042 498.5 916.042C729.097 916.042 916.042 729.097 916.042 498.5C916.042 267.903 729.097 80.9585 498.5 80.9585ZM156.875 498.5C156.875 577.833 183.939 650.865 229.3 708.865C261.163 667.04 302.261 633.144 349.386 609.822C396.511 586.5 448.387 574.383 500.967 574.417C552.871 574.356 604.103 586.15 650.756 608.897C697.409 631.645 738.251 664.746 770.168 705.677C803.057 662.541 825.201 612.194 834.769 558.8C844.337 505.407 841.052 450.503 825.188 398.631C809.324 346.759 781.336 299.411 743.539 260.503C705.743 221.595 659.225 192.247 607.835 174.887C556.444 157.526 501.658 152.653 448.01 160.67C394.362 168.687 343.394 189.363 299.324 220.989C255.253 252.614 219.347 294.279 194.576 342.537C169.805 390.794 156.882 444.256 156.875 498.5ZM498.5 840.125C420.075 840.252 344.015 813.272 283.2 763.753C307.676 728.703 340.259 700.086 378.175 680.338C416.091 660.59 458.217 650.297 500.967 650.333C543.184 650.297 584.799 660.334 622.357 679.611C659.915 698.889 692.331 726.85 716.912 761.172C655.627 812.302 578.313 840.25 498.5 840.125Z" fill="#906EB2"/>
</svg>
